<?xml version="1.0" encoding="utf-8"?>
<!-- Generator: Adobe Illustrator 19.0.0, SVG Export Plug-In . SVG Version: 6.00 Build 0)  -->
<svg version="1.1" id="Layer_1" xmlns="http://www.w3.org/2000/svg" xmlns:xlink="http://www.w3.org/1999/xlink" x="0px" y="0px"
	 viewBox="0 0 129 137.9" style="enable-background:new 0 0 129 137.9;" xml:space="preserve">
<style type="text/css">
	.st0{fill:#AA0000;}
	.st1{fill:#FFFFFF;}
	.st2{fill:#FF0000;}
	.st3{fill:#FF5500;}
	.st4{fill:#FFFF00;}
</style>
<g>
	<g>
		<polygon id="XMLID_89_" class="st0" points="21,24.9 24,24.9 24,11.9 21,11.9 21,14.9 18,14.9 18,21.9 21,21.9 		"/>
		<polygon id="XMLID_88_" class="st0" points="45,35.9 45,26.9 42,26.9 42,29.9 39,29.9 39,32.9 36,32.9 36,-0.1 33,-0.1 33,2.9 
			30,2.9 30,5.9 27,5.9 27,26.9 24,26.9 24,34.9 21,34.9 21,31.9 18,31.9 18,41.9 15,41.9 15,38.9 12,38.9 12,35.9 9,35.9 9,50.9 
			6,59.9 6,80.9 15,89.9 28.5,103.4 42,89.9 51,80.9 51,68.9 		"/>
	</g>
	<g>
		<path id="XMLID_87_" class="st0" d="M51,29.9"/>
		<rect id="XMLID_86_" x="27" y="101.9" class="st1" width="3" height="3"/>
		<rect id="XMLID_85_" x="30" y="98.9" class="st1" width="3" height="3"/>
		<rect id="XMLID_84_" x="24" y="98.9" class="st1" width="3" height="3"/>
		<rect id="XMLID_83_" x="33" y="95.9" class="st1" width="3" height="3"/>
		<rect id="XMLID_82_" x="21" y="95.9" class="st1" width="3" height="3"/>
		<rect id="XMLID_81_" x="36" y="92.9" class="st1" width="3" height="3"/>
		<rect id="XMLID_80_" x="18" y="92.9" class="st1" width="3" height="3"/>
		<rect id="XMLID_79_" x="39" y="89.9" class="st1" width="3" height="3"/>
		<rect id="XMLID_78_" x="15" y="89.9" class="st1" width="3" height="3"/>
		<rect id="XMLID_77_" x="42" y="86.9" class="st1" width="3" height="3"/>
		<rect id="XMLID_76_" x="12" y="86.9" class="st1" width="3" height="3"/>
		<rect id="XMLID_75_" x="45" y="83.9" class="st1" width="3" height="3"/>
		<rect id="XMLID_74_" x="9" y="83.9" class="st1" width="3" height="3"/>
		<rect id="XMLID_73_" x="48" y="80.9" class="st1" width="3" height="3"/>
		<rect id="XMLID_72_" x="6" y="80.9" class="st1" width="3" height="3"/>
		<polygon id="XMLID_71_" class="st1" points="36,80.9 36,77.9 33,77.9 33,74.9 30,74.9 30,71.9 27,71.9 27,74.9 24,74.9 24,77.9 
			21,77.9 21,80.9 18,80.9 18,83.9 21,83.9 21,86.9 24,86.9 24,89.9 27,89.9 27,92.9 30,92.9 30,89.9 33,89.9 33,86.9 36,86.9 
			36,83.9 39,83.9 39,80.9 		"/>
		<polygon id="XMLID_70_" class="st1" points="24,50.9 24,53.9 21,53.9 21,62.9 24,62.9 24,59.9 27,59.9 27,50.9 		"/>
		<path class="st2" d="M39,83.9v9h-3v3h-3v3h-3v-9h3v-3h3v-3H39z M27,56.9v3h-3v3h-3v3h-3v3h-3v3v18h3v-3v-3v-3h3v-3h3v-3h3v-3h3
			v-15H27z M48,47.9v3h-3v3h-3v21h3v-3h3v-3h3v-21H48z M30,41.9v-3h-3v-3h-3v15h3v-3h3v-3h3v-3H30z M15,41.9v-3h-3v-3H9v18h3v3h3v3
			h3v-18H15z"/>
		<path class="st3" d="M42,44.9v45h-3v-6v-3h-3v-3h-3v-3h-3v-18v-3h3v-3h3v-3h3v-3H42z M12,56.9v-3H9v-3H6v-3H3v-3H0v3v9h3v3h3v3h3
			v3h3v-3h3v-6H12z M33,35.9v-3h-3v-3h-3v-3h-3v9h3v3h3v3h6v-6H33z"/>
	</g>
	<path class="st4" d="M30,92.9v9h-3v-3h-3v-3h-3v-3h-3v-9h3v3h3v3h3v3H30z M18,59.9h-3v3h-3v9h3v-3h3v-3h3v-9h-3V59.9z M33,41.9v3
		h-3v3h-3v9h3v-3h3v-3h3v-9H33z M54,26.9v3h-3v3h-3v3h-3v3h-3v15h3v-3h3v-3h3v-3h3v-3h3v-15H54z M21,23.9v-3h-3v12h3v3h3v-12H21z"/>
	<path class="st1" d="M120,138v-3h9v3H120z M111,138v-9h-6v3h3v3h-6v3H111z M93,138v-3h-3v3H93z M63,135v-6h-3v9h9v-3H63z M120,135
		v-3h-3v3H120z M102,135v-3h-3v3H102z M87,135h3v-3h-3V135z M69,135h3v-3h-3V135z M123,129v3h6v-3H123z M114,132h3v-3h-3V132z
		 M96,132h3v-3h-3V132z M78,138h3v-9h-3V138z M45,129v9h3v-3h9v-3h-9v-3H45z M117,129h3v-3h-3V129z M99,129h3v-3h-3V129z M81,129h3
		v-3h-3V129z M66,126h-3v3h3V126z M51,126h-3v3h3V126z M120,123v3h9v-3H120z M102,123v3h9v-3H102z M84,123v3h6v6h3v-9H84z M66,123v3
		h6v6h3v-9H66z M60,126v-3h-9v3H60z M129,120v-9h-6v3h3v3h-6v3H129z M81,120v-3h-6v-9h6v-3h-9v15H81z M63,120v-3h-6v-6h-3v9H63z
		 M51,120v-3h-9v3H51z M120,117v-3h-3v3H120z M81,117h3v-3h-3V117z M63,117h3v-3h-3V117z M39,114v3h3v-3H39z M114,114h3v-3h-3V114z
		 M108,120h3v-9h-3V120z M87,114v-3h-3v3H87z M36,111v3h3v-3H36z M117,111h3v-3h-3V111z M105,108v3h3v-3H105z M84,111v-3h-3v3H84z
		 M60,108h-3v3h3V108z M42,108h-3v3h3V108z M120,105v3h9v-3H120z M96,105v15h3v-12h6v-3H96z M90,120h3v-15h-3V120z M66,108v6h3v-9
		h-9v3H66z M51,108v-3h-9v3H51z M129,102v-3h-9v3H129z M120,99v-3h-3v3H120z M123,93v3h6v-3H123z M114,96h3v-3h-3V96z M102,96h3v-3
		h-3V96z M99,87h-3v15h3v-3h3v-3h-3V87z M117,93h3v-3h-3V93z M120,87v3h9v-3H120z M108,90h-3v3h3v9h3V87h-3V90z M78,87v3h6v12h3V90
		h6v-3H78z"/>
</g>
</svg>
